<svg width="30" height="30" viewBox="0 0 30 30" fill="none" xmlns="http://www.w3.org/2000/svg">
<g clip-path="url(#clip0_4018_5959)">
<path d="M15 0C23.2734 0 30 6.72656 30 15C30 23.2734 23.2734 30 15 30C6.72656 30 0 23.2734 0 15C0 6.72656 6.72656 0 15 0ZM15 28.5C22.4531 28.5 28.5 22.4531 28.5 15C28.5 7.54688 22.4531 1.5 15 1.5C7.54688 1.5 1.5 7.54688 1.5 15C1.5 22.4531 7.54688 28.5 15 28.5ZM18.4688 9L12.75 15L18.4688 21H15.3047L9.75 15L15.3047 9H18.4688Z" fill="white"/>
</g>
<defs>
<clipPath id="clip0_4018_5959">
<rect width="30" height="30" fill="white" transform="matrix(-1 0 0 1 30 0)"/>
</clipPath>
</defs>
</svg>
