<svg width="60" height="30" viewBox="0 0 55 30" fill="white" xmlns="http://www.w3.org/2000/svg">
<g clip-path="url(#clip0_4018_6081)">
<path d="M23.325 0.838396L18.8667 11.1908H11.1659L4.42318 4.52005C4.71794 4.15553 4.86533 3.68165 4.86533 3.17132C4.86533 1.8955 3.83365 0.874848 2.54404 0.874848C1.25444 0.874848 0.222764 1.8955 0.222764 3.13487C0.222764 4.37424 1.25444 5.43135 2.54404 5.43135C3.83365 5.43135 3.13358 5.35844 3.3915 5.28554L10.6501 12.4666H18.314L17.3192 14.7995H4.6811C4.38633 13.8518 3.50203 13.1227 2.43351 13.1227C1.36498 13.1227 0.112227 14.1434 0.112227 15.4192C0.112227 16.695 1.14391 17.7157 2.43351 17.7157C3.72311 17.7157 4.38633 17.0231 4.6811 16.0389H16.7665L15.7717 18.3718H10.3922L3.13358 25.5529C2.87566 25.4435 2.58089 25.407 2.28612 25.407C0.996524 25.407 -0.0351562 26.4277 -0.0351562 27.7035C-0.0351562 28.9793 0.996524 30 2.28612 30C3.57573 30 4.60741 28.9793 4.60741 27.7035C4.60741 26.4277 4.42318 26.7193 4.16526 26.3548L10.908 19.6841H15.1821L10.7238 30.0364H17.2823L19.9721 23.548H32.3522L35.042 30.0364H41.7847L29.2572 0.838396H23.325ZM22.3302 17.8615L26.2358 8.45686L30.1415 17.8615H22.367H22.3302Z" fill="#CFA935"/>
<path d="M54.2019 0.9113H47.7539V29.8542H54.2019V0.9113Z" fill="#CFA935"/>
</g>
<defs>
<clipPath id="clip0_4018_6081">
<rect width="100" height="30" fill="white"/>
</clipPath>
</defs>
</svg>
